<svg version="1.1" xmlns="http://www.w3.org/2000/svg" xmlns:xlink="http://www.w3.org/1999/xlink" x="0px" y="0px" viewBox="0 0 256 256" enable-background="new 0 0 256 256" xml:space="preserve">
<g><g><g><path fill="#000000" d="M216.5,201.8c0,30.4-45.9,44.2-88.5,44.2c-42.6,0-88.5-13.8-88.5-44.2c0-25.1,31.4-38.9,66.4-43v15c-29.9,3.8-51.6,14.8-51.6,28c0,16.3,33,29.5,73.8,29.5c40.7,0,73.7-13.2,73.7-29.5c0-13.2-21.8-24.2-51.6-28v-15C185.1,162.8,216.5,176.6,216.5,201.8z M128,10c-28.5,0-51.6,23.1-51.6,51.6c0,26,19.3,47.3,44.2,50.9v89.2h14.8v-89.3c25-3.6,44.3-24.9,44.3-50.9C179.6,33.1,156.5,10,128,10z M113.2,54.3c-8.2,0-14.7-6.6-14.7-14.8s6.6-14.7,14.7-14.7c8.2,0,14.8,6.6,14.8,14.7C128,47.7,121.4,54.3,113.2,54.3z"/></g><g></g><g></g><g></g><g></g><g></g><g></g><g></g><g></g><g></g><g></g><g></g><g></g><g></g><g></g><g></g></g></g>
</svg>